<?xml version="1.0" standalone="yes"?>
<svg xmlns="http://www.w3.org/2000/svg" width="800" height="673">
<path style="fill:#010101; stroke:none;" d="M0 0L0 673L800 673L800 0L0 0z"/>
<path style="fill:#ffc90d; stroke:none;" d="M147 87L340 87.0394L397 81.2816L422 77C411.774 71.8676 398.196 70.8401 387 68.6003C365.337 64.2668 343.367 59.9929 322 54.3696C310.346 51.3024 315.065 40.7866 307.301 35.0278C304.753 33.1376 299.977 33.9988 297 34C287.635 34.0036 277.273 34.1417 268 35.4252C259.009 36.6697 260.593 42.7377 253.895 46.7222C242.37 53.5777 226.642 56.8086 214 61.3079C197.666 67.1212 181.215 72.6667 165 78.8079C159.455 80.908 150.618 82.0819 147 87z"/>
<path style="fill:#01608a; stroke:none;" d="M269 87L269 88L292 88L269 87z"/>
<path style="fill:#ffc90d; stroke:none;" d="M147 106L147 114C157.4 114.001 163.269 120.911 174 122.576C191.002 125.212 208.031 127.741 225 130.586C232.186 131.792 241.247 131.858 247.96 134.728C256.896 138.547 256.1 153.56 266.015 155.656C274.385 157.425 292.37 158.239 300 154.231C310.062 148.946 310.699 135.34 320.015 131.108C346.588 119.037 376.809 115.31 403 102.247C411.113 98.2003 422.053 93.9426 428 87L315 95.9105L147 106z"/>
<path style="fill:#01608a; stroke:none;" d="M269 96L270 97L269 96M275 96L275 97L292 97L275 96M297 155L298 156L297 155M284 156L284 157L296 157L284 156z"/>
<path style="fill:#01a1e7; stroke:none;" d="M240 277C239.79 272.114 239.398 253.714 233.852 252.357C229.784 251.362 224.091 253.299 220 253.87C208.653 255.451 197.346 257.289 186 258.87C147.642 264.214 109.221 269.509 71 275.754C59.0309 277.709 47.0096 279.442 35 281.13C31.3138 281.649 23.5153 281.521 20.6427 284.024C18.1683 286.18 20.171 292.245 20.5787 295C22.0568 304.986 23.2892 315.007 24.7292 325C29.005 354.673 32.9801 384.369 37.5756 414C39.6043 427.08 40.1536 441.342 44 454L129 439.586L194 431C194.947 453.066 201.33 479.187 213.479 497.91C219.173 506.686 227.346 514.496 233.623 523C249.647 544.71 269.632 567.878 294 580.954C309.719 589.388 330.57 593.011 348 595.282C362.477 597.168 378.407 600.534 393 599.96C426.92 598.625 468.857 582.661 494 559.896C506.266 548.79 521.752 536.484 531.362 523C542.644 507.168 551 484.907 558.663 467C563.509 455.675 566.45 442.838 569.859 431C571.648 424.788 572.798 417.878 579.005 414.573C584.799 411.486 591.847 413.489 598 413.91C612.513 414.904 624.867 417.688 639 421.24C662.739 427.207 690.607 426.075 715 428L721.834 366L729 296L620 281.834L544 273L538 302C528.81 289.169 520.548 270.855 508.816 260.39C494.06 247.229 468.698 239.602 451 230.753C442.81 226.658 433.114 219.6 424 218.213C405.8 215.444 384.451 219.777 366 219.996C342.263 220.279 318.362 219.015 296.09 228.992C290.183 231.639 285.813 238.48 281 242.715C268.048 254.11 254.032 267.116 240 277z"/>
<path style="fill:#01608a; stroke:none;" d="M292 231L293 232L292 231z"/>
<path style="fill:#c3c3c3; stroke:none;" d="M355 239.465C330.642 243.847 307.706 254.36 287 267.698C268.984 279.304 254.139 296.58 243.579 315C224.445 348.375 214.753 384.175 220.3 423C232.498 508.371 322.352 571.765 407 556.536C430.752 552.262 456.213 541.881 475 526.575C507.523 500.077 533.577 465.855 539.7 423C553.245 328.195 477.899 239 382 239C373.239 239 363.641 237.91 355 239.465z"/>
<path style="fill:#01608a; stroke:none;" d="M282 241L283 242L282 241M281 242L282 243L281 242M280 243L281 244L280 243M275 247L276 248L275 247M274 248L275 249L274 248M273 249L274 250L273 249M612.667 414.333L613.333 414.667L612.667 414.333M616.667 415.333L617.333 415.667L616.667 415.333M620.667 416.333L621.333 416.667L620.667 416.333M624.667 417.333L625.333 417.667L624.667 417.333M628.667 418.333L629.333 418.667L628.667 418.333M632.667 419.333L633.333 419.667L632.667 419.333M636 420L637 421L636 420M167 432L167 433L172 433L167 432M160 433L160 434L163 434L160 433M154 434L154 435L157 435L154 434M148 435L148 436L151 436L148 435M218 503L219 504L218 503M219 504L220 505L219 504M220 505L221 506L220 505M223 509L224 510L223 509M224 510L225 511L224 510M226 513L227 514L226 513M227 514L228 515L227 514M229 517L230 518L229 517M230 518L231 519L230 518M232 521L233 522L232 521M233 522L234 523L233 522M235 525L236 526L235 525M236 526L237 527L236 526M237 528L238 529L237 528z"/>
</svg>
